<svg width="1000" height="1000" viewBox="0 0 1000 1000" fill="none" xmlns="http://www.w3.org/2000/svg">
<rect width="1000" height="1000" rx="150" fill="black"/>
<path fill-rule="evenodd" clip-rule="evenodd" d="M631.278 306.41C651.117 347.126 655 392.756 655 419.36C655 474.427 634.765 564.904 592.799 642.391C551.262 719.085 480.187 797 373.045 797C324.382 797 283.965 773.571 252.62 739.748C221.802 706.494 197.835 661.423 179.416 611.275C142.497 510.763 124 379.151 124 248H214C214 372.209 231.704 492.597 263.897 580.245C280.034 624.177 298.85 657.227 318.632 678.572C337.887 699.349 355.886 707 373.045 707C430.455 707 477.858 665.635 513.66 599.53C549.034 534.216 565 458.374 565 419.36C565 398.924 561.638 368.954 550.371 345.831C544.986 334.779 538.59 326.929 531.448 321.855C524.768 317.109 515.204 313.16 500.069 313.16V223.16C532.654 223.16 560.692 232.231 583.572 248.485C605.989 264.411 621.111 285.542 631.278 306.41Z" fill="white"/>
<path d="M557 722.5L460.5 627.5L551 468L673 537.5L557 722.5Z" fill="url(#paint0_linear_2001_2004)" fill-opacity="0.5"/>
<path d="M443.5 683L508.999 752L360.5 885L319.5 622.5L443.5 683Z" fill="url(#paint1_linear_2001_2004)" fill-opacity="0.5"/>
<path fill-rule="evenodd" clip-rule="evenodd" d="M369.722 306.41C349.883 347.126 346 392.756 346 419.36C346 474.427 366.235 564.904 408.201 642.391C449.738 719.085 520.813 797 627.955 797C676.618 797 717.035 773.571 748.38 739.748C779.198 706.494 803.165 661.423 821.584 611.275C858.503 510.763 877 379.151 877 248H787C787 372.209 769.296 492.597 737.103 580.245C720.966 624.177 702.15 657.227 682.368 678.572C663.113 699.349 645.114 707 627.955 707C570.545 707 523.142 665.635 487.34 599.53C451.966 534.216 436 458.374 436 419.36C436 398.924 439.362 368.954 450.629 345.831C456.014 334.779 462.41 326.929 469.552 321.855C476.232 317.109 485.796 313.16 500.931 313.16V223.16C468.346 223.16 440.308 232.231 417.428 248.485C395.011 264.411 379.889 285.542 369.722 306.41Z" fill="white"/>
<defs>
<linearGradient id="paint0_linear_2001_2004" x1="543.5" y1="661.5" x2="609" y2="511.5" gradientUnits="userSpaceOnUse">
<stop/>
<stop offset="1" stop-opacity="0"/>
</linearGradient>
<linearGradient id="paint1_linear_2001_2004" x1="480.5" y1="721.5" x2="362.5" y2="769.5" gradientUnits="userSpaceOnUse">
<stop/>
<stop offset="1" stop-opacity="0"/>
</linearGradient>
</defs>
</svg>
